<?xml version="1.0" encoding="utf-8"?>
<!-- Generator: Adobe Illustrator 16.0.3, SVG Export Plug-In . SVG Version: 6.00 Build 0)  -->
<!DOCTYPE svg PUBLIC "-//W3C//DTD SVG 1.1//EN" "http://www.w3.org/Graphics/SVG/1.1/DTD/svg11.dtd">
<svg version="1.1" id="Layer_1" xmlns="http://www.w3.org/2000/svg" xmlns:xlink="http://www.w3.org/1999/xlink" x="0px" y="0px"
	 width="80px" height="60px" viewBox="0 0 80 60" enable-background="new 0 0 80 60" xml:space="preserve">
<g>
	<g>
		<path d="M20.186,30.276c0,0,9.831-10.99,11.826-13.272c0.766-2.857-0.054-4.823-0.054-4.823l-5.59,6.33l-0.999-1.012
			c0,0,4.728-5.268,5.864-6.507c-0.424-1.567-1.887-1.958-1.887-1.958l-5.798,6.764l-1.102-1.108c0,0,4.288-4.888,5.566-6.313
			c-1.34-0.845-2.259-0.697-3.172-0.682c-0.98,1.116-4.609,5.234-4.609,5.234s-3.644-3.831-5-5.329
			c-1.865-0.277-3.252,0.611-3.252,0.611l5.921,6.478l-1.197,1.124c0,0-4.656-5.095-6.17-6.662c-1.637,0.393-1.82,1.958-1.82,1.958
			l6.165,6.533l-0.952,1.296l-5.802-6.023c0,0-0.749,1.59,0.234,4.683C10.369,19.739,20.186,30.276,20.186,30.276z"/>
		<polygon fill="#FFFFFF" points="19.981,16.683 18.505,18.33 20.097,20.052 21.452,18.368 		"/>
		<polygon fill="#FFFFFF" points="17.151,19.552 15.678,21.196 17.263,22.923 18.622,21.236 		"/>
		<polygon fill="#FFFFFF" points="20.098,22.673 18.622,24.316 20.213,26.038 21.568,24.355 		"/>
		<polygon fill="#FFFFFF" points="23.041,19.719 21.568,21.363 23.157,23.09 24.512,21.403 		"/>
	</g>
	<g>
		<g>
			<path d="M1.771,33.834c7.096,2.492,10.461-2.886,20.079,2.213c0.315-0.25-0.727-0.951-1.363-1.639
				c-10.301-4.821-11.498,0.617-18.917-2.143C0.629,32.854,1.457,33.613,1.771,33.834z"/>
			<path d="M1.595,29.735c6.529,3.698,10.912-1.369,20.159,6.126c0.356-0.188-1.299-1.418-1.8-2.207
				c-9.54-6.556-12.5-1.959-18.087-5.434C0.834,28.634,1.326,29.463,1.595,29.735z"/>
			<path d="M3.429,25.908c5.684,4.867,8.416-0.651,17.873,9.264c0.387-0.121-1.785-2.002-2.122-2.869
				c-5.924-7.445-10.389-3.334-15.188-7.804C2.898,24.708,3.221,25.591,3.429,25.908z"/>
		</g>
		<g>
			<path d="M78.419,33.735c-7.06,2.567-10.407-2.974-19.975,2.28c-0.315-0.26,0.722-0.982,1.354-1.688
				c10.25-4.968,11.441,0.634,18.819-2.21C79.555,32.725,78.73,33.508,78.419,33.735z"/>
			<path d="M78.595,29.511c-6.497,3.811-10.858-1.411-20.056,6.315c-0.353-0.195,1.291-1.466,1.787-2.277
				c9.491-6.754,12.436-2.019,17.997-5.599C79.348,28.376,78.86,29.23,78.595,29.511z"/>
			<path d="M76.769,25.569c-5.654,5.014-8.372-0.671-17.783,9.544c-0.384-0.125,1.776-2.062,2.11-2.957
				c5.897-7.67,10.337-3.435,15.111-8.039C77.297,24.333,76.976,25.241,76.769,25.569z"/>
		</g>
		<text transform="matrix(1.3126 0 0 1 21.9072 36.0146)" font-family="'MonotypeCorsiva'" font-size="16.8019">Doa</text>
		<text transform="matrix(1.4637 0 0 1 9.7324 50.4922)" font-family="'MonotypeCorsiva'" font-size="21.0023">Fácil</text>
	</g>
</g>
</svg>
